<svg xmlns="http://www.w3.org/2000/svg" viewBox="0 0 94.21 87.65"><defs><style>.cls-1{fill:#c8161d;}.cls-2{fill:#595757;}.cls-3{fill:#727171;}.cls-4{fill:#3e3a39;}.cls-5{fill:#666;}</style></defs><g id="レイヤー_2" data-name="レイヤー 2"><g id="レイヤー_1-2" data-name="レイヤー 1"><path class="cls-1" d="M46.51,17.2a9,9,0,0,0,7.43,0,18.59,18.59,0,0,0,7.46-6.53,4.42,4.42,0,0,0-.24-5.43C59.77,3.38,55,0,47.84,0c-8.18,0-12,3.16-13.47,4.32s-1.85,3.26,0,5.33C36.82,12.41,43.56,16,46.51,17.2Z"/><path class="cls-1" d="M48.55,27.41c-.7-3.12-2.17-4.56-4.29-6.3-2.42-2-8.83-6.66-12.78-6.66-2.48,0-4.27.83-5.17,3.15,0,0-.88,1.35-.88,5,0,12,9.44,20.77,17.79,20.77,2.33,0,3.72-1.24,4.49-3.64C48.79,36.36,49.11,29.85,48.55,27.41Z"/><path class="cls-1" d="M55.79,21.23a10.37,10.37,0,0,0-3.12,6.67c-.06,2.63-.31,7.14.45,10.24.6,2.41,1.68,2.94,4.13,1.69,3.43-1.74,11.52-8.06,11.52-18.12,0-5.29-2.42-6.93-5.07-6C61.71,16.37,57.38,19.57,55.79,21.23Z"/><path class="cls-2" d="M4.45,65.79a.35.35,0,0,1-.37-.37V64.05a1.32,1.32,0,0,0-1.5-1.5H2.29a1.33,1.33,0,0,0-1.51,1.5v6.72a1.33,1.33,0,0,0,1.51,1.51H2.6a1.32,1.32,0,0,0,1.5-1.51V69.06a.35.35,0,0,1,.37-.35h0a.34.34,0,0,1,.36.35v1.69A2,2,0,0,1,2.62,73H2.27A2,2,0,0,1,0,70.75V64.08a2,2,0,0,1,2.27-2.27H2.6a2,2,0,0,1,2.24,2.24v1.37a.34.34,0,0,1-.35.37Z"/><path class="cls-2" d="M8.51,73H8.08a2,2,0,0,1-2.27-2.27V64.08a2,2,0,0,1,2.27-2.27h.43a2,2,0,0,1,2.25,2.27v6.67A2,2,0,0,1,8.51,73Zm0-10.47H8.1a1.32,1.32,0,0,0-1.5,1.5v6.72a1.32,1.32,0,0,0,1.5,1.51h.39A1.33,1.33,0,0,0,10,70.77V64.05A1.33,1.33,0,0,0,8.49,62.55Z"/><path class="cls-2" d="M15.81,58.57a.34.34,0,0,1,.37-.35h0a.34.34,0,0,1,.35.35v14a.34.34,0,0,1-.35.37h0a.34.34,0,0,1-.37-.37v-.52a3.21,3.21,0,0,1-2.17.93,1.68,1.68,0,0,1-1.91-1.83V63.64a1.67,1.67,0,0,1,1.91-1.83,3.28,3.28,0,0,1,2.17.9ZM12.49,71.1a1.07,1.07,0,0,0,1.2,1.18,3.17,3.17,0,0,0,2.12-1V63.64a3.18,3.18,0,0,0-2.06-1.09c-.77,0-1.26.35-1.26,1.17Z"/><path class="cls-2" d="M22.05,70.73A2,2,0,0,1,19.77,73h-.25a2,2,0,0,1-2.29-2.29V64.1a2,2,0,0,1,2.29-2.29h.25a2,2,0,0,1,2.28,2.29v3.25a.37.37,0,0,1-.39.39H18v3a1.35,1.35,0,0,0,1.53,1.53h.23a1.35,1.35,0,0,0,1.52-1.53v-1a.35.35,0,0,1,.37-.35h0a.34.34,0,0,1,.35.35Zm-4-6.65V67h3.26V64.08c0-1-.51-1.53-1.63-1.53S18,63.07,18,64.08Z"/><path class="cls-3" d="M27.21,73h-.05a.35.35,0,0,1-.37-.37v-10h-.55a.32.32,0,0,1-.33-.33v0a.33.33,0,0,1,.33-.35h.55V60.1c0-1.2.54-1.82,1.74-1.82h.35a.36.36,0,0,1,.37.33v.06a.35.35,0,0,1-.37.35h-.33c-.68,0-1,.36-1,1.06v1.83h1.25a.32.32,0,0,1,.33.33v0a.33.33,0,0,1-.33.35H27.58v10A.35.35,0,0,1,27.21,73Z"/><path class="cls-3" d="M31.7,73h-.43A2,2,0,0,1,29,70.75V64.08a2,2,0,0,1,2.27-2.27h.43A2,2,0,0,1,34,64.08v6.67A2,2,0,0,1,31.7,73Zm0-10.47h-.39a1.33,1.33,0,0,0-1.51,1.5v6.72a1.33,1.33,0,0,0,1.51,1.51h.39a1.32,1.32,0,0,0,1.5-1.51V64.05A1.32,1.32,0,0,0,31.68,62.55Z"/><path class="cls-3" d="M35.39,73a.34.34,0,0,1-.37-.37V62.2a.34.34,0,0,1,.37-.35h0a.33.33,0,0,1,.35.35v.74a2.92,2.92,0,0,1,1.69-1.13.36.36,0,0,1,.41.37c0,.23-.12.37-.47.47a3.94,3.94,0,0,0-1.63,1v8.93a.34.34,0,0,1-.35.37Z"/><path class="cls-4" d="M44.38,72.36a.54.54,0,0,1-.6.6h0a.53.53,0,0,1-.6-.6V68l-2.23-8.78a.54.54,0,0,1,.58-.74h0a.53.53,0,0,1,.58.45l1.65,7.28,1.69-7.3a.5.5,0,0,1,.55-.43h0c.44,0,.67.26.54.7l-2.2,8.76Z"/><path class="cls-4" d="M52.68,70.51A2.24,2.24,0,0,1,50.15,73h-.66A2.25,2.25,0,0,1,47,70.51V60.88a2.24,2.24,0,0,1,2.54-2.51h.66a2.24,2.24,0,0,1,2.53,2.51Zm-1.23-9.67a1.17,1.17,0,0,0-1.34-1.32h-.58a1.17,1.17,0,0,0-1.34,1.32v9.73a1.17,1.17,0,0,0,1.34,1.32h.58a1.17,1.17,0,0,0,1.34-1.32Z"/><path class="cls-4" d="M57.84,72.53l-2.93-6.74v6.57a.54.54,0,0,1-.6.6h0a.54.54,0,0,1-.6-.6V59.05a.53.53,0,0,1,.6-.6h0a.53.53,0,0,1,.6.6v6.47l3-6.56c.12-.26.27-.51.62-.51a.55.55,0,0,1,.55.8l-3,6.33L59,72.12c.23.51-.16.84-.6.84A.57.57,0,0,1,57.84,72.53Z"/><path class="cls-4" d="M65.21,70.51A2.24,2.24,0,0,1,62.68,73H62a2.25,2.25,0,0,1-2.54-2.53V60.88A2.24,2.24,0,0,1,62,58.37h.66a2.24,2.24,0,0,1,2.53,2.51ZM64,60.84a1.17,1.17,0,0,0-1.34-1.32h-.58a1.17,1.17,0,0,0-1.34,1.32v9.73a1.17,1.17,0,0,0,1.34,1.32h.58A1.17,1.17,0,0,0,64,70.57Z"/><path class="cls-4" d="M67.44,65h3.18V59.05a.53.53,0,0,1,.59-.6h0a.53.53,0,0,1,.6.6V72.36a.53.53,0,0,1-.6.6h0a.53.53,0,0,1-.59-.6V66.14H67.44v6.22a.54.54,0,0,1-.6.6h0a.54.54,0,0,1-.6-.6V59.05a.53.53,0,0,1,.6-.6h0a.53.53,0,0,1,.6.6Z"/><path class="cls-4" d="M77.93,73a.53.53,0,0,1-.56-.47L77,70.2H74l-.35,2.29a.51.51,0,0,1-.55.47h0a.52.52,0,0,1-.58-.66L74.65,59a.61.61,0,0,1,.68-.57h.33a.62.62,0,0,1,.69.57l2.2,13.32A.52.52,0,0,1,78,73ZM76.84,69,75.5,60.43,74.14,69Z"/><path class="cls-4" d="M80.32,70v2.35a.51.51,0,0,1-.55.58h0a.52.52,0,0,1-.57-.58V59.13a.62.62,0,0,1,.68-.68h.57a.59.59,0,0,1,.66.55l2.27,11.77L85.6,59a.6.6,0,0,1,.66-.55h.56a.62.62,0,0,1,.68.68V72.36a.53.53,0,0,1-.58.6h0a.54.54,0,0,1-.6-.6V70l0-9.36L84,72.4a.61.61,0,0,1-.66.56h-.1a.61.61,0,0,1-.66-.56L80.28,60.59Z"/><path class="cls-4" d="M93.58,73a.52.52,0,0,1-.56-.47l-.35-2.29h-3l-.35,2.29a.52.52,0,0,1-.56.47h0a.52.52,0,0,1-.58-.66L90.3,59a.61.61,0,0,1,.68-.57h.33A.61.61,0,0,1,92,59L94.2,72.3a.52.52,0,0,1-.58.66ZM92.48,69l-1.34-8.61L89.78,69Z"/><path class="cls-5" d="M14.53,86.23a.18.18,0,0,1-.18.2h0a.19.19,0,0,1-.2-.2V78.65a.19.19,0,0,1,.2-.19h0a.18.18,0,0,1,.18.19V80.9a1.74,1.74,0,0,1,1.17-.5c.68,0,1,.31,1,1v4.86a.18.18,0,0,1-.18.2h0a.19.19,0,0,1-.2-.2v-4.8a.55.55,0,0,0-.62-.63,1.86,1.86,0,0,0-1.15.58Z"/><path class="cls-5" d="M18.23,86.43h0a.18.18,0,0,1-.2-.2V80.84h-.32a.17.17,0,0,1-.18-.19v0a.17.17,0,0,1,.18-.18H18v-.83a.18.18,0,0,1,.2-.2h0a.19.19,0,0,1,.2.2v.83h.63a.18.18,0,0,1,.18.18v0a.18.18,0,0,1-.18.19h-.63v5.39A.19.19,0,0,1,18.23,86.43Z"/><path class="cls-5" d="M20.35,86.43h0a.19.19,0,0,1-.2-.2V80.84h-.31a.18.18,0,0,1-.19-.19v0a.18.18,0,0,1,.19-.18h.31v-.83a.19.19,0,0,1,.2-.2h0a.18.18,0,0,1,.2.2v.83h.64a.18.18,0,0,1,.18.18v0a.18.18,0,0,1-.18.19h-.64v5.39A.18.18,0,0,1,20.35,86.43Z"/><path class="cls-5" d="M23.61,80.4a.91.91,0,0,1,1,1v4.07c0,.65-.35,1-1,1A1.76,1.76,0,0,1,22.44,86v1.5a.18.18,0,0,1-.18.19h0a.19.19,0,0,1-.2-.19V80.61a.19.19,0,0,1,.2-.19h0a.18.18,0,0,1,.18.19v.29A1.74,1.74,0,0,1,23.61,80.4Zm.63,1a.58.58,0,0,0-.65-.63,1.73,1.73,0,0,0-1.15.57v4.1a1.7,1.7,0,0,0,1.12.58c.41,0,.68-.19.68-.63Z"/><path class="cls-5" d="M25.73,80.41a.21.21,0,0,1,.21.21v.58a.21.21,0,0,1-.21.21h0a.21.21,0,0,1-.21-.21v-.58a.21.21,0,0,1,.21-.21Zm0,5a.21.21,0,0,1,.21.21v.58a.21.21,0,0,1-.21.21h0a.21.21,0,0,1-.21-.21v-.58a.21.21,0,0,1,.21-.21Z"/><path class="cls-5" d="M28.21,78.22a.17.17,0,0,1,.18.21L27,86.64a.15.15,0,0,1-.16.14h0a.17.17,0,0,1-.18-.21L28,78.36a.16.16,0,0,1,.17-.14Z"/><path class="cls-5" d="M30.61,78.22a.17.17,0,0,1,.18.21L29.4,86.64a.16.16,0,0,1-.17.14h0a.17.17,0,0,1-.18-.21l1.39-8.21a.16.16,0,0,1,.17-.14Z"/><path class="cls-5" d="M34,82.55a.19.19,0,0,1-.2-.2v-.74A.72.72,0,0,0,33,80.8h-.16a.72.72,0,0,0-.81.81v3.63a.72.72,0,0,0,.81.81H33a.71.71,0,0,0,.81-.81v-.92a.18.18,0,0,1,.2-.19h0a.17.17,0,0,1,.18.19v.91A1.08,1.08,0,0,1,33,86.45h-.19a1.08,1.08,0,0,1-1.22-1.22V81.62a1.08,1.08,0,0,1,1.22-1.22H33a1.07,1.07,0,0,1,1.21,1.21v.74a.18.18,0,0,1-.19.2Z"/><path class="cls-5" d="M36.63,86.45H36.4a1.08,1.08,0,0,1-1.23-1.22V81.62A1.08,1.08,0,0,1,36.4,80.4h.23a1.08,1.08,0,0,1,1.21,1.22v3.61A1.08,1.08,0,0,1,36.63,86.45Zm0-5.65h-.21a.72.72,0,0,0-.82.81v3.63a.72.72,0,0,0,.82.81h.21a.72.72,0,0,0,.81-.81V81.61A.72.72,0,0,0,36.62,80.8Z"/><path class="cls-5" d="M41,78.65a.19.19,0,0,1,.2-.19h0a.18.18,0,0,1,.19.19v7.58a.18.18,0,0,1-.19.2h0a.19.19,0,0,1-.2-.2V86a1.74,1.74,0,0,1-1.17.5.9.9,0,0,1-1-1V81.39a.9.9,0,0,1,1-1,1.76,1.76,0,0,1,1.17.49Zm-1.79,6.77a.58.58,0,0,0,.65.63A1.69,1.69,0,0,0,41,85.49v-4.1a1.7,1.7,0,0,0-1.11-.59c-.41,0-.68.19-.68.63Z"/><path class="cls-5" d="M45.05,85.22a1.1,1.1,0,0,1-1.23,1.23h-.14a1.09,1.09,0,0,1-1.23-1.23V81.63a1.09,1.09,0,0,1,1.23-1.23h.14a1.1,1.1,0,0,1,1.23,1.23v1.76a.21.21,0,0,1-.21.21h-2v1.63a.73.73,0,0,0,.82.82h.13a.73.73,0,0,0,.82-.82v-.54a.19.19,0,0,1,.2-.19h0a.18.18,0,0,1,.19.19Zm-2.18-3.6V83.2h1.76V81.62c0-.54-.28-.82-.88-.82S42.87,81.08,42.87,81.62Z"/><path class="cls-5" d="M47.79,78.69a.22.22,0,0,1,.2-.14h.19a.21.21,0,0,1,.21.21v5.6H49a.18.18,0,0,1,.18.18v0a.18.18,0,0,1-.18.19h-.59v1.49a.18.18,0,0,1-.18.19h0a.18.18,0,0,1-.19-.19V84.75H45.93a.23.23,0,0,1-.24-.25,1,1,0,0,1,.1-.33Zm-1.67,5.67H48v-5.2Z"/><path class="cls-5" d="M49.8,85.43a.21.21,0,0,1,.21.21v.58a.21.21,0,0,1-.21.21h0a.21.21,0,0,1-.21-.21v-.58a.21.21,0,0,1,.21-.21Z"/><path class="cls-5" d="M52.06,87.51a.17.17,0,0,1-.18.14h0a.18.18,0,0,1-.19-.22l.21-1-1.21-5.77a.18.18,0,0,1,.19-.23h0a.18.18,0,0,1,.19.16l1,5.08,1-5.09a.18.18,0,0,1,.18-.15h0a.18.18,0,0,1,.19.22Z"/><path class="cls-5" d="M55.7,86.45h-.24a1.08,1.08,0,0,1-1.22-1.22V81.62a1.08,1.08,0,0,1,1.22-1.22h.24a1.08,1.08,0,0,1,1.21,1.22v3.61A1.08,1.08,0,0,1,55.7,86.45Zm0-5.65h-.22a.72.72,0,0,0-.81.81v3.63a.72.72,0,0,0,.81.81h.22a.72.72,0,0,0,.81-.81V81.61A.72.72,0,0,0,55.69,80.8Z"/><path class="cls-5" d="M60.12,86.43a.17.17,0,0,1-.16-.1l-1.62-2.9v2.8a.18.18,0,0,1-.18.2h0a.19.19,0,0,1-.2-.2V78.65a.19.19,0,0,1,.2-.19h0a.18.18,0,0,1,.18.19v4.7L60,80.51a.18.18,0,0,1,.16-.09h0a.19.19,0,0,1,.17.29l-1.58,2.64,1.55,2.78A.2.2,0,0,1,60.12,86.43Z"/><path class="cls-5" d="M62.56,86.45h-.23a1.09,1.09,0,0,1-1.23-1.22V81.62a1.09,1.09,0,0,1,1.23-1.22h.23a1.08,1.08,0,0,1,1.21,1.22v3.61A1.08,1.08,0,0,1,62.56,86.45Zm0-5.65h-.21a.71.71,0,0,0-.81.81v3.63a.71.71,0,0,0,.81.81h.21a.72.72,0,0,0,.81-.81V81.61A.72.72,0,0,0,62.55,80.8Z"/><path class="cls-5" d="M65.21,86.23a.19.19,0,0,1-.19.2h0a.19.19,0,0,1-.2-.2V78.65a.19.19,0,0,1,.2-.19h0a.18.18,0,0,1,.19.19V80.9a1.74,1.74,0,0,1,1.17-.5c.68,0,1,.31,1,1v4.86a.19.19,0,0,1-.19.2h0a.19.19,0,0,1-.2-.2v-4.8a.56.56,0,0,0-.62-.63,1.82,1.82,0,0,0-1.15.58Z"/><path class="cls-5" d="M70.47,86a1.84,1.84,0,0,1-1.13.48c-.65,0-1-.31-1-.94V84.4c0-.63.23-.92.88-1.17l1.22-.47V81.53c0-.47-.24-.73-.8-.73s-.83.26-.83.73v.63a.19.19,0,0,1-.19.2h0a.19.19,0,0,1-.2-.2v-.61c0-.75.42-1.15,1.25-1.15s1.22.4,1.22,1.15v4.68a.18.18,0,0,1-.2.2h0a.19.19,0,0,1-.2-.2Zm-1.06.08h0a1.76,1.76,0,0,0,1-.52V83.15l-1.06.42c-.46.19-.62.39-.62.84v1C68.79,85.86,69,86.05,69.41,86.05Z"/><path class="cls-5" d="M72.37,81.37v4.86a.18.18,0,0,1-.19.2h0a.19.19,0,0,1-.2-.2V80.61a.19.19,0,0,1,.2-.19h0a.18.18,0,0,1,.19.19v.29a1.76,1.76,0,0,1,1.16-.5.83.83,0,0,1,.88.52,1.76,1.76,0,0,1,1.19-.52.86.86,0,0,1,1,.92v4.91a.19.19,0,0,1-.2.2h0a.18.18,0,0,1-.2-.2V81.4a.55.55,0,0,0-.63-.61,1.7,1.7,0,0,0-1,.53v4.91a.19.19,0,0,1-.2.2h0a.19.19,0,0,1-.2-.2V81.4a.55.55,0,0,0-.6-.61A2,2,0,0,0,72.37,81.37Z"/><path class="cls-5" d="M79.66,86a1.84,1.84,0,0,1-1.13.48c-.65,0-1-.31-1-.94V84.4c0-.63.23-.92.88-1.17l1.22-.47V81.53c0-.47-.24-.73-.8-.73s-.83.26-.83.73v.63a.19.19,0,0,1-.19.2h0a.19.19,0,0,1-.2-.2v-.61c0-.75.42-1.15,1.25-1.15s1.22.4,1.22,1.15v4.68a.18.18,0,0,1-.2.2h0a.19.19,0,0,1-.2-.2Zm-1.06.08h0a1.76,1.76,0,0,0,1-.52V83.15l-1.06.42c-.46.19-.62.39-.62.84v1C78,85.86,78.18,86.05,78.6,86.05Z"/></g></g></svg>