<svg xmlns="http://www.w3.org/2000/svg" viewBox="0 0 100 93.98"><defs><style>.cls-1{fill:#fff;}.cls-2{fill:#595757;}.cls-3{fill:#b5b5b6;}</style></defs><g id="レイヤー_2" data-name="レイヤー 2"><g id="レイヤー_1-2" data-name="レイヤー 1"><path class="cls-1" d="M49.38,18.25a9.47,9.47,0,0,0,7.88,0,19.77,19.77,0,0,0,7.92-6.93,4.7,4.7,0,0,0-.26-5.77C63.45,3.58,58.39,0,50.79,0,42.1,0,38.1,3.36,36.49,4.59s-2,3.46,0,5.66C39.08,13.18,46.24,17,49.38,18.25Z"/><path class="cls-1" d="M51.54,29.09c-.75-3.3-2.31-4.83-4.56-6.68-2.57-2.12-9.37-7.08-13.56-7.08-2.64,0-4.54.89-5.49,3.35,0,0-.93,1.44-.93,5.32,0,12.7,10,22,18.88,22,2.47,0,3.94-1.31,4.76-3.86C51.79,38.6,52.13,31.69,51.54,29.09Z"/><path class="cls-1" d="M59.22,22.53a11,11,0,0,0-3.31,7.08c-.06,2.79-.33,7.59.48,10.87.63,2.56,1.78,3.12,4.38,1.8C64.41,40.43,73,33.72,73,23c0-5.61-2.57-7.35-5.38-6.39C65.51,17.37,60.9,20.78,59.22,22.53Z"/><path class="cls-2" d="M4.73,69.83a.37.37,0,0,1-.4-.39V68a1.4,1.4,0,0,0-1.6-1.59h-.3A1.4,1.4,0,0,0,.83,68v7.14a1.4,1.4,0,0,0,1.6,1.59h.33a1.4,1.4,0,0,0,1.59-1.59V73.31a.37.37,0,0,1,.4-.37h0a.35.35,0,0,1,.37.37v1.8a2.12,2.12,0,0,1-2.38,2.4H2.41A2.13,2.13,0,0,1,0,75.11V68a2.14,2.14,0,0,1,2.41-2.41h.35A2.11,2.11,0,0,1,5.14,68v1.45a.36.36,0,0,1-.37.39Z"/><path class="cls-2" d="M9,77.51H8.58a2.13,2.13,0,0,1-2.41-2.4V68a2.14,2.14,0,0,1,2.41-2.41H9A2.13,2.13,0,0,1,11.42,68v7.09A2.12,2.12,0,0,1,9,77.51ZM9,66.4H8.6A1.4,1.4,0,0,0,7,68v7.14a1.4,1.4,0,0,0,1.6,1.59H9a1.4,1.4,0,0,0,1.6-1.59V68A1.4,1.4,0,0,0,9,66.4Z"/><path class="cls-2" d="M16.78,62.17a.36.36,0,0,1,.39-.37h0a.36.36,0,0,1,.37.37V77.08a.36.36,0,0,1-.37.39h0a.36.36,0,0,1-.39-.39v-.55a3.41,3.41,0,0,1-2.3,1,1.78,1.78,0,0,1-2-2v-8a1.77,1.77,0,0,1,2-2,3.45,3.45,0,0,1,2.3,1ZM13.26,75.48a1.13,1.13,0,0,0,1.27,1.24,3.36,3.36,0,0,0,2.25-1.09V67.56a3.35,3.35,0,0,0-2.19-1.16c-.81,0-1.33.37-1.33,1.24Z"/><path class="cls-2" d="M23.41,75.08A2.16,2.16,0,0,1,21,77.51h-.26a2.16,2.16,0,0,1-2.43-2.43V68a2.16,2.16,0,0,1,2.43-2.43H21A2.16,2.16,0,0,1,23.41,68V71.5a.4.4,0,0,1-.42.41H19.12v3.2a1.42,1.42,0,0,0,1.62,1.61H21a1.43,1.43,0,0,0,1.62-1.61v-1a.36.36,0,0,1,.39-.38H23a.36.36,0,0,1,.37.38ZM19.12,68v3.1h3.46V68c0-1.08-.55-1.62-1.73-1.62S19.12,66.94,19.12,68Z"/><path class="cls-2" d="M28.88,77.47h0a.37.37,0,0,1-.4-.39V66.49h-.59a.35.35,0,0,1-.35-.36v0a.35.35,0,0,1,.35-.37h.59V63.79c0-1.27.57-1.92,1.84-1.92h.37a.37.37,0,0,1,.4.35v.06a.38.38,0,0,1-.4.37H30.3c-.72,0-1,.38-1,1.12v1.95h1.34a.35.35,0,0,1,.35.35v0a.36.36,0,0,1-.35.38H29.27V77.08A.36.36,0,0,1,28.88,77.47Z"/><path class="cls-2" d="M33.65,77.51h-.46a2.13,2.13,0,0,1-2.41-2.4V68a2.14,2.14,0,0,1,2.41-2.41h.46A2.13,2.13,0,0,1,36,68v7.09A2.13,2.13,0,0,1,33.65,77.51Zm0-11.11h-.42A1.4,1.4,0,0,0,31.61,68v7.14a1.4,1.4,0,0,0,1.6,1.59h.42a1.4,1.4,0,0,0,1.59-1.59V68A1.4,1.4,0,0,0,33.63,66.4Z"/><path class="cls-2" d="M37.57,77.47a.37.37,0,0,1-.4-.39V66a.37.37,0,0,1,.4-.37h0A.36.36,0,0,1,38,66v.79a3.14,3.14,0,0,1,1.8-1.2.39.39,0,0,1,.43.39c0,.24-.13.4-.5.51A4.06,4.06,0,0,0,38,67.6v9.48a.36.36,0,0,1-.37.39Z"/><path class="cls-3" d="M47.1,76.81a.56.56,0,0,1-.63.64h0a.57.57,0,0,1-.64-.64V72.15l-2.36-9.32c-.11-.48.11-.79.61-.79h.05a.57.57,0,0,1,.61.48l1.75,7.73,1.79-7.75a.55.55,0,0,1,.59-.46h.05a.54.54,0,0,1,.57.75l-2.35,9.3Z"/><path class="cls-3" d="M55.92,74.84a2.38,2.38,0,0,1-2.69,2.69h-.7a2.38,2.38,0,0,1-2.69-2.69V64.62A2.38,2.38,0,0,1,52.53,62h.7a2.38,2.38,0,0,1,2.69,2.66ZM54.61,64.58a1.24,1.24,0,0,0-1.42-1.4h-.61a1.24,1.24,0,0,0-1.43,1.4V74.91a1.24,1.24,0,0,0,1.43,1.4h.61a1.24,1.24,0,0,0,1.42-1.4Z"/><path class="cls-3" d="M61.39,77l-3.1-7.16v7a.57.57,0,0,1-.64.64h0a.57.57,0,0,1-.64-.64V62.68a.57.57,0,0,1,.64-.64h0a.57.57,0,0,1,.64.64v6.87l3.19-7c.13-.28.28-.55.66-.55a.6.6,0,0,1,.59.86l-3.15,6.71,3.06,6.94c.24.55-.18.9-.64.9A.63.63,0,0,1,61.39,77Z"/><path class="cls-3" d="M69.23,74.84a2.39,2.39,0,0,1-2.7,2.69h-.7a2.38,2.38,0,0,1-2.69-2.69V64.62A2.38,2.38,0,0,1,65.83,62h.7a2.38,2.38,0,0,1,2.7,2.66ZM67.91,64.58a1.24,1.24,0,0,0-1.42-1.4h-.61a1.24,1.24,0,0,0-1.42,1.4V74.91a1.24,1.24,0,0,0,1.42,1.4h.61a1.24,1.24,0,0,0,1.42-1.4Z"/><path class="cls-3" d="M71.59,69H75v-6.3a.57.57,0,0,1,.63-.64h0a.57.57,0,0,1,.63.64V76.81a.57.57,0,0,1-.63.64h0a.57.57,0,0,1-.63-.64V70.2H71.59v6.61a.57.57,0,0,1-.64.64h0a.57.57,0,0,1-.64-.64V62.68a.57.57,0,0,1,.64-.64h0a.57.57,0,0,1,.64.64Z"/><path class="cls-3" d="M82.72,77.45a.57.57,0,0,1-.59-.51l-.37-2.43H78.52l-.37,2.43a.56.56,0,0,1-.59.51h0a.56.56,0,0,1-.62-.7l2.35-14.14A.65.65,0,0,1,80,62h.35a.66.66,0,0,1,.72.61l2.34,14.14a.55.55,0,0,1-.61.7Zm-1.15-4.16-1.43-9.15L78.7,73.29Z"/><path class="cls-3" d="M85.26,74.34v2.49a.55.55,0,0,1-.59.62h0a.55.55,0,0,1-.61-.62V62.77a.66.66,0,0,1,.72-.73h.61a.64.64,0,0,1,.7.59l2.41,12.5,2.4-12.5a.65.65,0,0,1,.7-.59h.6a.66.66,0,0,1,.72.73v14a.56.56,0,0,1-.61.64h0a.57.57,0,0,1-.63-.64V74.3l0-9.94-2.45,12.5a.65.65,0,0,1-.7.59h-.11a.65.65,0,0,1-.7-.59L85.22,64.32Z"/><path class="cls-3" d="M99.33,77.45a.56.56,0,0,1-.59-.51l-.37-2.43H95.13l-.37,2.43a.56.56,0,0,1-.59.51h0a.56.56,0,0,1-.61-.7l2.34-14.14a.66.66,0,0,1,.72-.61h.35a.66.66,0,0,1,.73.61L100,76.75a.55.55,0,0,1-.61.7Zm-1.16-4.16-1.42-9.15-1.44,9.15Z"/><path class="cls-1" d="M17.44,92.56a.19.19,0,0,1-.19.2h0a.19.19,0,0,1-.2-.2V85a.19.19,0,0,1,.2-.19h0a.18.18,0,0,1,.19.19v2.25a1.74,1.74,0,0,1,1.17-.5c.68,0,1,.31,1,1v4.86a.19.19,0,0,1-.19.2h0a.19.19,0,0,1-.2-.2v-4.8a.56.56,0,0,0-.62-.63,1.89,1.89,0,0,0-1.15.58Z"/><path class="cls-1" d="M21.14,92.76h0a.19.19,0,0,1-.2-.2V87.17H20.6a.18.18,0,0,1-.19-.18v0a.17.17,0,0,1,.19-.17h.31V86a.19.19,0,0,1,.2-.2h0a.19.19,0,0,1,.2.2v.84H22a.17.17,0,0,1,.18.17v0a.17.17,0,0,1-.18.18h-.63v5.39A.19.19,0,0,1,21.14,92.76Z"/><path class="cls-1" d="M23.26,92.76h0a.19.19,0,0,1-.2-.2V87.17h-.31a.18.18,0,0,1-.19-.18v0a.17.17,0,0,1,.19-.17H23V86a.19.19,0,0,1,.2-.2h0a.19.19,0,0,1,.2.2v.84h.64a.16.16,0,0,1,.17.17v0a.17.17,0,0,1-.17.18h-.64v5.39A.19.19,0,0,1,23.26,92.76Z"/><path class="cls-1" d="M26.52,86.73a.9.9,0,0,1,1,1v4.07a.9.9,0,0,1-1,1,1.76,1.76,0,0,1-1.17-.49v1.5a.18.18,0,0,1-.19.19h0a.19.19,0,0,1-.2-.19V86.94a.19.19,0,0,1,.2-.19h0a.18.18,0,0,1,.19.19v.29A1.74,1.74,0,0,1,26.52,86.73Zm.62,1a.57.57,0,0,0-.64-.63,1.69,1.69,0,0,0-1.15.57v4.1a1.66,1.66,0,0,0,1.11.58c.42,0,.68-.19.68-.63Z"/><path class="cls-1" d="M28.63,86.74a.21.21,0,0,1,.22.21v.58a.21.21,0,0,1-.22.21h0a.21.21,0,0,1-.21-.21V87a.21.21,0,0,1,.21-.21Zm0,5a.21.21,0,0,1,.22.21v.58a.21.21,0,0,1-.22.21h0a.21.21,0,0,1-.21-.21V92a.21.21,0,0,1,.21-.21Z"/><path class="cls-1" d="M31.12,84.55a.16.16,0,0,1,.17.21L29.9,93a.16.16,0,0,1-.16.15h0a.17.17,0,0,1-.17-.22l1.39-8.21a.15.15,0,0,1,.16-.14Z"/><path class="cls-1" d="M33.52,84.55a.17.17,0,0,1,.18.21L32.3,93a.16.16,0,0,1-.16.15h0a.17.17,0,0,1-.18-.22l1.39-8.21a.16.16,0,0,1,.17-.14Z"/><path class="cls-1" d="M36.9,88.88a.19.19,0,0,1-.2-.2v-.74a.72.72,0,0,0-.81-.81h-.16a.72.72,0,0,0-.81.81v3.63a.72.72,0,0,0,.81.81h.17a.72.72,0,0,0,.81-.81v-.92a.18.18,0,0,1,.2-.19h0a.18.18,0,0,1,.19.19v.91a1.08,1.08,0,0,1-1.21,1.22h-.19a1.08,1.08,0,0,1-1.22-1.22V88a1.08,1.08,0,0,1,1.22-1.22h.18a1.07,1.07,0,0,1,1.21,1.21v.74a.19.19,0,0,1-.19.2Z"/><path class="cls-1" d="M39.54,92.78H39.3a1.08,1.08,0,0,1-1.22-1.22V88a1.08,1.08,0,0,1,1.22-1.22h.24A1.08,1.08,0,0,1,40.75,88v3.61A1.08,1.08,0,0,1,39.54,92.78Zm0-5.65h-.22a.72.72,0,0,0-.81.81v3.63a.72.72,0,0,0,.81.81h.22a.72.72,0,0,0,.81-.81V87.94A.72.72,0,0,0,39.53,87.13Z"/><path class="cls-1" d="M43.92,85a.19.19,0,0,1,.2-.19h0a.18.18,0,0,1,.19.19v7.58a.19.19,0,0,1-.19.2h0a.19.19,0,0,1-.2-.2v-.28a1.74,1.74,0,0,1-1.17.5.9.9,0,0,1-1-1V87.72a.9.9,0,0,1,1-1,1.76,1.76,0,0,1,1.17.49Zm-1.79,6.77a.58.58,0,0,0,.64.63,1.69,1.69,0,0,0,1.15-.56v-4.1a1.7,1.7,0,0,0-1.11-.59c-.41,0-.68.19-.68.63Z"/><path class="cls-1" d="M48,91.55a1.1,1.1,0,0,1-1.24,1.23h-.13a1.09,1.09,0,0,1-1.23-1.23V88a1.09,1.09,0,0,1,1.23-1.23h.13A1.1,1.1,0,0,1,48,88v1.76a.21.21,0,0,1-.21.21h-2v1.63a.72.72,0,0,0,.82.82h.12a.73.73,0,0,0,.83-.82V91a.18.18,0,0,1,.2-.19h0A.18.18,0,0,1,48,91ZM45.78,88v1.58h1.76V88c0-.54-.28-.82-.88-.82S45.78,87.41,45.78,88Z"/><path class="cls-1" d="M50.69,85a.24.24,0,0,1,.2-.14h.19a.21.21,0,0,1,.22.21v5.6h.59a.17.17,0,0,1,.17.18v0a.17.17,0,0,1-.17.19H51.3v1.49a.18.18,0,0,1-.18.19h0a.18.18,0,0,1-.19-.19V91.08H48.84a.24.24,0,0,1-.25-.25,1.32,1.32,0,0,1,.1-.33ZM49,90.69h1.88V85.5Z"/><path class="cls-1" d="M52.71,91.76a.21.21,0,0,1,.21.21v.58a.21.21,0,0,1-.21.21h0a.21.21,0,0,1-.22-.21V92a.21.21,0,0,1,.22-.21Z"/><path class="cls-1" d="M55,93.84a.18.18,0,0,1-.18.14h0a.17.17,0,0,1-.19-.22l.21-1L53.58,87a.18.18,0,0,1,.19-.24h0a.19.19,0,0,1,.19.16L55,92l1-5.09a.18.18,0,0,1,.18-.15h0a.18.18,0,0,1,.19.22Z"/><path class="cls-1" d="M58.6,92.78h-.23a1.08,1.08,0,0,1-1.22-1.22V88a1.08,1.08,0,0,1,1.22-1.22h.23A1.08,1.08,0,0,1,59.82,88v3.61A1.08,1.08,0,0,1,58.6,92.78Zm0-5.65h-.21a.72.72,0,0,0-.81.81v3.63a.72.72,0,0,0,.81.81h.21a.72.72,0,0,0,.82-.81V87.94A.72.72,0,0,0,58.59,87.13Z"/><path class="cls-1" d="M63,92.76a.17.17,0,0,1-.16-.1l-1.62-2.9v2.8a.19.19,0,0,1-.19.2h0a.19.19,0,0,1-.2-.2V85a.19.19,0,0,1,.2-.19h0a.18.18,0,0,1,.19.19v4.7l1.66-2.84a.19.19,0,0,1,.16-.09h0a.18.18,0,0,1,.16.29l-1.57,2.64,1.55,2.78A.2.2,0,0,1,63,92.76Z"/><path class="cls-1" d="M65.47,92.78h-.23A1.08,1.08,0,0,1,64,91.56V88a1.08,1.08,0,0,1,1.23-1.22h.23A1.08,1.08,0,0,1,66.68,88v3.61A1.08,1.08,0,0,1,65.47,92.78Zm0-5.65h-.21a.72.72,0,0,0-.82.81v3.63a.72.72,0,0,0,.82.81h.21a.72.72,0,0,0,.81-.81V87.94A.72.72,0,0,0,65.46,87.13Z"/><path class="cls-1" d="M68.12,92.56a.19.19,0,0,1-.19.2h0a.19.19,0,0,1-.21-.2V85a.19.19,0,0,1,.21-.19h0a.18.18,0,0,1,.19.19v2.25a1.74,1.74,0,0,1,1.16-.5c.68,0,1,.31,1,1v4.86a.19.19,0,0,1-.19.2h0a.18.18,0,0,1-.2-.2v-4.8a.56.56,0,0,0-.63-.63,1.87,1.87,0,0,0-1.14.58Z"/><path class="cls-1" d="M73.38,92.3a1.84,1.84,0,0,1-1.14.48.84.84,0,0,1-1-.94V90.73c0-.63.23-.92.88-1.17l1.22-.47V87.86c0-.47-.25-.73-.8-.73s-.84.26-.84.73v.63a.18.18,0,0,1-.19.2h0a.19.19,0,0,1-.2-.2v-.61c0-.75.41-1.15,1.25-1.15s1.22.4,1.22,1.15v4.68a.19.19,0,0,1-.2.2h0a.19.19,0,0,1-.2-.2Zm-1.06.08h0a1.76,1.76,0,0,0,1-.52V89.48l-1.06.42c-.47.19-.62.39-.62.85v1C71.7,92.19,71.9,92.38,72.32,92.38Z"/><path class="cls-1" d="M75.28,87.7v4.86a.19.19,0,0,1-.19.2h0a.19.19,0,0,1-.2-.2V86.94a.19.19,0,0,1,.2-.19h0a.18.18,0,0,1,.19.19v.29a1.76,1.76,0,0,1,1.16-.5.84.84,0,0,1,.88.52,1.76,1.76,0,0,1,1.19-.52.86.86,0,0,1,1,.92v4.91a.19.19,0,0,1-.2.2h0a.19.19,0,0,1-.2-.2V87.73a.55.55,0,0,0-.62-.61,1.75,1.75,0,0,0-1.06.53v4.91a.18.18,0,0,1-.2.2h0a.19.19,0,0,1-.2-.2V87.73a.55.55,0,0,0-.6-.61A2,2,0,0,0,75.28,87.7Z"/><path class="cls-1" d="M82.57,92.3a1.84,1.84,0,0,1-1.14.48.84.84,0,0,1-1-.94V90.73c0-.63.23-.92.87-1.17l1.23-.47V87.86c0-.47-.25-.73-.8-.73s-.84.26-.84.73v.63a.19.19,0,0,1-.19.2h0a.19.19,0,0,1-.2-.2v-.61c0-.75.41-1.15,1.25-1.15s1.22.4,1.22,1.15v4.68a.19.19,0,0,1-.2.2h0a.19.19,0,0,1-.2-.2Zm-1.06.08h0a1.76,1.76,0,0,0,1-.52V89.48l-1.06.42c-.47.19-.62.39-.62.85v1C80.89,92.19,81.09,92.38,81.51,92.38Z"/></g></g></svg>