<svg xmlns="http://www.w3.org/2000/svg" viewBox="0 0 268.66 60"><defs><style>.cls-1{fill:#c8161d;}.cls-2{fill:#595757;}.cls-3{fill:#727171;}.cls-4{fill:#3e3a39;}</style></defs><g id="レイヤー_2" data-name="レイヤー 2"><g id="レイヤー_1-2" data-name="レイヤー 1"><path class="cls-1" d="M29.16,23.79c3.17,1.32,7.08,1.67,10.27,0a25.74,25.74,0,0,0,10.32-9,6.11,6.11,0,0,0-.33-7.52C47.5,4.67,40.91,0,31,0,19.68,0,14.47,4.38,12.36,6s-2.56,4.51,0,7.37C15.74,17.17,25.07,22.09,29.16,23.79Z"/><path class="cls-1" d="M32,37.91c-1-4.31-3-6.3-5.94-8.71C22.69,26.44,13.83,20,8.36,20c-3.43,0-5.91,1.16-7.15,4.36,0,0-1.21,1.88-1.21,6.93C0,47.83,13.05,60,24.6,60c3.23,0,5.14-1.71,6.21-5C32.3,50.29,32.74,41.29,32,37.91Z"/><path class="cls-1" d="M42,29.36c-2.19,2.29-4.22,5.59-4.3,9.23s-.44,9.88.62,14.16c.82,3.34,2.32,4.07,5.71,2.35C48.75,52.69,60,44,60,30c0-7.32-3.35-9.58-7-8.33C50.18,22.64,44.18,27.08,42,29.36Z"/><path class="cls-2" d="M78.11,35.33a.74.74,0,0,1-.79-.79V31.65c0-2.14-1-3.19-3.19-3.19h-.62c-2.14,0-3.19,1.05-3.19,3.19V45.92c0,2.14,1.05,3.19,3.19,3.19h.66c2.14,0,3.2-1,3.2-3.19V42.29a.72.72,0,0,1,.78-.75h.09a.71.71,0,0,1,.74.75v3.59c0,3.19-1.61,4.81-4.77,4.81h-.74c-3.2,0-4.81-1.62-4.81-4.81V31.7c0-3.2,1.61-4.82,4.81-4.82h.7c3.2,0,4.77,1.62,4.77,4.77v2.89a.73.73,0,0,1-.74.79Z"/><path class="cls-2" d="M86.73,50.69h-.92c-3.19,0-4.81-1.62-4.81-4.81V31.7c0-3.2,1.62-4.82,4.81-4.82h.92c3.15,0,4.77,1.62,4.77,4.82V45.88C91.5,49.07,89.88,50.69,86.73,50.69Zm0-22.23h-.84c-2.14,0-3.19,1.05-3.19,3.19V45.92c0,2.14,1,3.19,3.19,3.19h.84c2.14,0,3.19-1,3.19-3.19V31.65C89.88,29.51,88.83,28.46,86.69,28.46Z"/><path class="cls-2" d="M102.22,20a.72.72,0,0,1,.79-.74h.08a.71.71,0,0,1,.75.74v29.8a.73.73,0,0,1-.75.79H103a.74.74,0,0,1-.79-.79V48.72c-1.53,1.23-2.71,2-4.6,2-2.71,0-4.07-1.4-4.07-3.9v-16c0-2.54,1.36-3.9,4.07-3.9a6.86,6.86,0,0,1,4.6,1.93Zm-7,26.61a2.27,2.27,0,0,0,2.54,2.49c1.66,0,2.89-.78,4.51-2.18V30.78c-1.62-1.45-2.85-2.32-4.38-2.32s-2.67.74-2.67,2.49Z"/><path class="cls-2" d="M115.48,45.83c0,3.2-1.67,4.86-4.86,4.86h-.53c-3.23,0-4.85-1.66-4.85-4.86V31.74c0-3.2,1.62-4.86,4.85-4.86h.53c3.19,0,4.86,1.66,4.86,4.86v6.91a.8.8,0,0,1-.83.83H106.9v6.4c0,2.14,1,3.23,3.24,3.23h.48c2.14,0,3.24-1.09,3.24-3.23V43.77a.72.72,0,0,1,.79-.74h.08a.72.72,0,0,1,.75.74ZM106.9,31.7v6.21h6.91V31.7c0-2.15-1.09-3.24-3.45-3.24S106.9,29.55,106.9,31.7Z"/><path class="cls-3" d="M126.42,50.6h-.09a.74.74,0,0,1-.79-.79V28.63h-1.18a.68.68,0,0,1-.7-.7v-.09a.7.7,0,0,1,.7-.74h1.18V23.25c0-2.54,1.14-3.85,3.68-3.85H130a.74.74,0,0,1,.79.7v.13A.74.74,0,0,1,130,21h-.7c-1.44,0-2.06.75-2.06,2.24V27.1h2.67a.69.69,0,0,1,.7.7v.09a.69.69,0,0,1-.7.74H127.2V49.81A.73.73,0,0,1,126.42,50.6Z"/><path class="cls-3" d="M136,50.69H135c-3.2,0-4.82-1.62-4.82-4.81V31.7c0-3.2,1.62-4.82,4.82-4.82H136c3.15,0,4.77,1.62,4.77,4.82V45.88C140.73,49.07,139.11,50.69,136,50.69Zm-.05-22.23h-.83c-2.14,0-3.2,1.05-3.2,3.19V45.92c0,2.14,1.06,3.19,3.2,3.19h.83c2.15,0,3.2-1,3.2-3.19V31.65C139.11,29.51,138.06,28.46,135.91,28.46Z"/><path class="cls-3" d="M143.79,50.6a.74.74,0,0,1-.79-.79V27.71a.73.73,0,0,1,.79-.74h.08a.72.72,0,0,1,.75.74v1.58c1-1.18,2.54-2.41,3.59-2.41a.78.78,0,0,1,.87.79c0,.48-.26.79-1,1a8.1,8.1,0,0,0-3.46,2.18v19a.73.73,0,0,1-.75.79Z"/><path class="cls-4" d="M162.87,49.29a1.14,1.14,0,0,1-1.27,1.27h-.09a1.14,1.14,0,0,1-1.27-1.27V40l-4.73-18.65c-.22-1,.22-1.57,1.23-1.57h.09a1.11,1.11,0,0,1,1.22,1l3.5,15.45,3.59-15.49a1.07,1.07,0,0,1,1.18-.92h.09a1.06,1.06,0,0,1,1.14,1.49l-4.68,18.6Z"/><path class="cls-4" d="M180.5,45.35c0,3.54-1.79,5.38-5.38,5.38h-1.4c-3.59,0-5.38-1.84-5.38-5.38V24.91c0-3.5,1.79-5.34,5.38-5.34h1.4c3.59,0,5.38,1.84,5.38,5.34Zm-2.62-20.53c0-1.88-.92-2.8-2.85-2.8h-1.22c-1.93,0-2.85.92-2.85,2.8V45.48c0,1.88.92,2.8,2.85,2.8H175c1.93,0,2.85-.92,2.85-2.8Z"/><path class="cls-4" d="M191.44,49.64l-6.21-14.31v14A1.14,1.14,0,0,1,184,50.56h-.09a1.14,1.14,0,0,1-1.27-1.27V21a1.14,1.14,0,0,1,1.27-1.27H184A1.14,1.14,0,0,1,185.23,21V34.76l6.39-13.92c.26-.57.57-1.09,1.31-1.09a1.19,1.19,0,0,1,1.18,1.71l-6.3,13.43,6.13,13.87a1.24,1.24,0,0,1-1.27,1.8A1.26,1.26,0,0,1,191.44,49.64Z"/><path class="cls-4" d="M207.11,45.35c0,3.54-1.8,5.38-5.38,5.38h-1.41c-3.58,0-5.38-1.84-5.38-5.38V24.91c0-3.5,1.8-5.34,5.38-5.34h1.41c3.58,0,5.38,1.84,5.38,5.34Zm-2.63-20.53c0-1.88-.92-2.8-2.84-2.8h-1.23c-1.92,0-2.84.92-2.84,2.8V45.48c0,1.88.92,2.8,2.84,2.8h1.23c1.92,0,2.84-.92,2.84-2.8Z"/><path class="cls-4" d="M211.83,33.62h6.74V21a1.14,1.14,0,0,1,1.27-1.27h.09A1.14,1.14,0,0,1,221.2,21V49.29a1.14,1.14,0,0,1-1.27,1.27h-.09a1.14,1.14,0,0,1-1.27-1.27V36.07h-6.74V49.29a1.13,1.13,0,0,1-1.27,1.27h-.08a1.14,1.14,0,0,1-1.27-1.27V21a1.14,1.14,0,0,1,1.27-1.27h.08A1.13,1.13,0,0,1,211.83,21Z"/><path class="cls-4" d="M234.11,50.56a1.11,1.11,0,0,1-1.18-1l-.75-4.86H225.7L225,49.55a1.11,1.11,0,0,1-1.18,1h-.09a1.1,1.1,0,0,1-1.22-1.4l4.68-28.27a1.3,1.3,0,0,1,1.44-1.23h.7a1.31,1.31,0,0,1,1.45,1.23l4.68,28.27a1.1,1.1,0,0,1-1.23,1.4Zm-2.32-8.32L228.94,24l-2.89,18.29Z"/><path class="cls-4" d="M239.18,44.34v5A1.09,1.09,0,0,1,238,50.56h-.09a1.11,1.11,0,0,1-1.22-1.23V21.19a1.31,1.31,0,0,1,1.44-1.44h1.23a1.28,1.28,0,0,1,1.4,1.18l4.81,25,4.82-25a1.28,1.28,0,0,1,1.4-1.18H253a1.31,1.31,0,0,1,1.44,1.44v28.1a1.12,1.12,0,0,1-1.22,1.27h-.09a1.14,1.14,0,0,1-1.27-1.27v-5l.09-19.87-4.9,25a1.3,1.3,0,0,1-1.4,1.18h-.22a1.29,1.29,0,0,1-1.4-1.18L239.09,24.3Z"/><path class="cls-4" d="M267.32,50.56a1.11,1.11,0,0,1-1.18-1l-.75-4.86h-6.47l-.75,4.86a1.11,1.11,0,0,1-1.18,1h-.08a1.1,1.1,0,0,1-1.23-1.4l4.68-28.27a1.31,1.31,0,0,1,1.45-1.23h.7A1.3,1.3,0,0,1,264,20.89l4.68,28.27a1.1,1.1,0,0,1-1.22,1.4ZM265,42.24,262.16,24l-2.89,18.29Z"/></g></g></svg>