<svg xmlns="http://www.w3.org/2000/svg" viewBox="0 0 849.65 906.32"><defs><style>.cls-1{fill:#c8161d;}.cls-2{fill:#fff;}</style></defs><g id="レイヤー_2" data-name="レイヤー 2"><g id="レイヤー_1-2" data-name="レイヤー 1"><path class="cls-1" d="M413.29,337.16c45,18.66,100.34,23.72,145.55.27,55.79-28.94,110.3-69.7,146.32-128,24.29-39.28,19.61-73.81-4.71-106.55C673.17,66.15,579.86,0,439.36,0,278.94,0,205.07,62,175.22,84.77s-36.3,63.85-.18,104.49C223.14,243.39,355.28,313.09,413.29,337.16Z"/><path class="cls-1" d="M453.22,537.3c-13.81-61-42.63-89.24-84.18-123.49C321.64,374.74,196,283.22,118.53,283.22c-48.72,0-83.76,16.43-101.37,61.81C17.16,345,0,371.57,0,443.26,0,677.89,184.91,850.39,348.65,850.39c45.72,0,72.92-24.23,88-71.33C457.8,712.83,464.07,585.2,453.22,537.3Z"/><path class="cls-1" d="M595.06,416.19c-31.17,32.44-59.9,79.19-61.08,130.74S527.86,687,542.83,747.66c11.67,47.26,32.9,57.69,80.92,33.27,67.2-34.17,225.9-158.08,225.9-355.37,0-103.62-47.42-135.71-99.42-118C711.22,320.83,626.23,383.75,595.06,416.19Z"/><path class="cls-2" d="M35.74,740.23l-4.67,1.51a3,3,0,0,0-.45-1c-.4-.67-1-1.18-1.43-1.93-2.72-4.54.28-9,7.55-13.37s12.6-4.39,15.13-.17c.5.83.76,1.8,1,2.27a3.85,3.85,0,0,0,.7.81L50.2,731.5l-.57-.41a2.75,2.75,0,0,0-.06-3.23c-1.32-2.21-4.88-2.06-10.56,1.34-6.36,3.81-7.83,6.36-6.49,8.61a3,3,0,0,0,3,1.73Z"/><path class="cls-2" d="M37.15,751.21c-2.7-4-1.38-7.73,7.39-13.64,7.82-5.28,12-4.79,14.5-1.13s1.41,7.76-6.41,13C43.86,755.4,39.85,755.21,37.15,751.21Zm19.11-12.89c-1-1.45-3-1.27-9.22,2.95-6.49,4.37-8.07,6.55-7.07,8s3.49,1,10.13-3.5C56.43,741.53,57.23,739.77,56.26,738.32Z"/><path class="cls-2" d="M46.73,764.5c-1.75-2.31-2.86-4.07-3.51-5.08l.51-.39c.56.73,1.06.7,1.57.31L63,745.89a1,1,0,0,0,.2-1.65l.51-.39c1,1.12,1.93,2.24,3.79,4.69,3.53,4.66,3,9.15-4.4,14.76S50.65,769.67,46.73,764.5Zm18.48-13.39a8.26,8.26,0,0,0-.73-.89L49.09,761.9a8.69,8.69,0,0,0,.54.8c1.59,2.09,4.65,1.78,10.85-2.91C65.68,755.84,66.52,752.83,65.21,751.11Z"/><path class="cls-2" d="M65.43,780.6l-4.19,2a4.79,4.79,0,0,0-1.08-1.79l-6-7.12.5-.41a1.08,1.08,0,0,0,1.75.09l16.74-14c.67-.56.82-1.1.25-1.77l.46-.38,5.71,6.8a6,6,0,0,0,1.88,1.66l-2.79,3.84L78,769a1.58,1.58,0,0,0-.15-2L75,763.47l-5.18,4.35L72,770.46c.71.85,1.4.81,2,.34l.56.67-4.43,3.72-.57-.67c.6-.5.75-1,0-2l-2.22-2.64-7.12,6L63,779.24c.68.81,1.17.82,2.17.64Z"/><path class="cls-2" d="M92.6,784.46l-.67-.31a1.76,1.76,0,0,0-.33-2.22l-3.08-3.23-4.9,4.66,2.38,2.5c.76.8,1.44.72,2,.21l.6.63-4.2,4-.61-.64c.57-.54.65-1.12,0-1.85l-2.47-2.6-7.64,7.25c-.66.64-.55,1.29.12,2l-.47.44-4.85-5.1.47-.44a1.1,1.1,0,0,0,1.76,0l15.84-15.05c.63-.61.71-1.19.14-1.79l.43-.41,6.34,6.67a5.73,5.73,0,0,0,1.76,1.31Z"/><path class="cls-2" d="M83.5,806.11c-3.47-3.36-3-7.27,4.39-14.88,6.54-6.79,10.76-7.19,13.94-4.13s3,7.3-3.55,14.09C90.94,808.8,87,809.46,83.5,806.11Zm16-16.59c-1.26-1.21-3.17-.62-8.4,4.8-5.43,5.63-6.53,8.09-5.23,9.34s3.61.22,9.16-5.54C100.34,792.63,100.76,790.73,99.5,789.52Z"/><path class="cls-2" d="M102.08,822.49l-4.14-3.65a59,59,0,0,1,5.61-9.09l-1.42-1.31-5.71,6.49c-.64.72-.68,1.11,0,1.72l-.43.49-5-4.41.42-.48c.63.54,1.08.58,1.75-.18l14.38-16.33c.58-.65.81-1.19,0-1.86l.39-.45c1.13.88,3.47,2.75,5.26,4.33,3.76,3.31,3.63,6.81.47,10.4-2.5,2.83-4.35,3.34-6.37,2.91-1.51,2.35-4.1,6.26-5.22,9.2a1.36,1.36,0,0,0,.37,1.73ZM110.82,800a6,6,0,0,0-.72-.58l-5.81,6.6a6.86,6.86,0,0,0,.63.67c1.48,1.31,3.25,1.33,5.56-1.29S111.89,800.91,110.82,800Z"/><path class="cls-2" d="M140.79,813c-.51-.4-1-.27-1.71.25L123.94,825l-5.73,7.38c-.7.9-.67,1.69.13,2.31l-.39.51-5.93-4.6.4-.51c.76.59,1.56.46,2.27-.45l5.72-7.38,7.5-17.53c.4-1,.38-1.39-.13-1.79l.4-.5,5.3,4.11-.39.51c-.62-.48-1.08-.49-1.36-.12a5.59,5.59,0,0,0-.54.92l-5.46,11.08.26.2,9.59-7.93a8.2,8.2,0,0,0,.73-.72c.36-.47.12-.83-.5-1.31l.4-.51,5,3.86Z"/><path class="cls-2" d="M128.55,843.71c-4.06-3-3.79-7.7,4.16-18.36,7.09-9.51,11.82-10.86,15.55-8.08s3.81,7.66-3.28,17.17C137,845.1,132.61,846.73,128.55,843.71ZM146,820.25c-1.59-1.18-3.95.38-9.56,7.91-5.83,7.82-7.3,11.25-5.64,12.49s4.39-1,10.36-9C146.88,824,147.62,821.44,146,820.25Z"/><path class="cls-2" d="M151.33,859.58l-4.77-3.37a133.66,133.66,0,0,1,5.4-14.77l-3,1.35-5.72,8.13c-.64.9-.71,1.64,0,2.17l-.37.52-5.75-4.05.37-.53c.75.53,1.4.26,2.06-.68L155.32,826c.71-1,.7-1.64,0-2.17l.37-.53,5.76,4.06-.37.53c-.83-.59-1.3-.41-2.06.68l-6.39,9.06.07.06,9.47-5.6a6.43,6.43,0,0,0,1.7-1.22c.29-.42.14-.92-.54-1.39l.37-.53,5.68,4-.37.53a1.38,1.38,0,0,0-1.81,0l-9.81,5.93a161.5,161.5,0,0,0-6,17c-.58,1.84-.3,2.26.33,2.71Z"/><path class="cls-2" d="M159.29,865.34c-4.22-2.78-4.22-7.47,3.08-18.57,6.53-9.91,11.17-11.53,15.06-9s4.25,7.42-2.28,17.34C167.85,866.23,163.52,868.12,159.29,865.34Zm16.09-24.44c-1.65-1.09-3.93.61-9.09,8.45-5.36,8.15-6.63,11.66-4.9,12.8s4.33-1.23,9.82-9.56C176.45,844.63,177,842,175.38,840.9Z"/><path class="cls-2" d="M183.06,879.66,177,876l.33-.55c.71.42,1.41.15,2-.84l6.94-11.49-4.8-2.91-7,11.5c-.57.95-.52,1.67.2,2.17l-.33.55-6-3.64.34-.55c.69.36,1.41.15,2-.83L184.93,846c.59-1,.49-1.69-.22-2.12l.33-.55,6,3.62-.33.55c-.75-.46-1.35-.17-1.94.81l-5.23,8.67,4.8,2.9,5.23-8.67c.6-1,.53-1.67-.22-2.12l.33-.55,6,3.64-.33.55c-.83-.5-1.39-.19-2,.79L183.2,876.94c-.57.95-.63,1.67.2,2.16Z"/><path class="cls-2" d="M200.08,889l-6-3.26.31-.57a.81.81,0,0,0,1.27-.41l.42-1,1-2.75a5.35,5.35,0,0,1-2.3-.67,6.07,6.07,0,0,1-1.91-1.61l-1.72,2.42c-.24.34-.61.92-.65,1-.26.49-.21.78.47,1.15l-.3.57L185,880.8l.3-.57c.57.31,1.14,0,1.63-.58l16.69-22.29a9.94,9.94,0,0,0,.62-1,.81.81,0,0,0-.35-1.18l.31-.57,7.16,3.88-.31.57a.84.84,0,0,0-1.19.45c-.15.28-.42.87-.57,1.26L200,886.65c-.36,1.05-.19,1.41.42,1.74Zm4.69-26.7-.16-.09-9.42,13.42a3.81,3.81,0,0,0,1.48,1.32,3.66,3.66,0,0,0,1.88.5Z"/><path class="cls-2" d="M222,899.29l-6.56-3,.27-.58a1.56,1.56,0,0,0,2.12-.95l7.78-16.82-.21-.1-8.9,9.92-1.58-.73,1.74-13.29-.21-.09-7.81,16.86a1.51,1.51,0,0,0,.65,2.22l-.27.59-6.6-3,.27-.59c.75.35,1.42,0,1.9-1l11.5-24.84c.48-1,.4-1.74-.44-2.13l.27-.58,5.89,2.72a9.25,9.25,0,0,0-.61,2.2l-2.27,14.21.17.08,9.25-10.57a9,9,0,0,0,1.52-2.19l5.63,2.61-.27.59c-.79-.37-1.36-.13-1.9,1l-11.5,24.83c-.46,1-.4,1.75.44,2.13Z"/><path class="cls-2" d="M240.71,906.32l-6.43-2.39.23-.61c.73.28,1-.11,1.2-.58,0,0,.17-.58.28-1l.63-2.86a5.46,5.46,0,0,1-2.38-.35,6,6,0,0,1-2.1-1.33l-1.38,2.63c-.19.38-.47,1-.5,1.09-.19.52-.1.8.63,1.07l-.23.61-6-2.24.23-.6c.6.22,1.12-.12,1.53-.81l13.42-24.4a9.86,9.86,0,0,0,.49-1,.82.82,0,0,0-.51-1.12l.22-.61,7.63,2.85-.23.6a.84.84,0,0,0-1.11.62c-.11.3-.29.92-.4,1.32l-5.66,26.9c-.22,1.1,0,1.43.65,1.67Zm.93-27.09-.18-.07L234,893.76a3.77,3.77,0,0,0,1.64,1.1,3.61,3.61,0,0,0,1.93.23Z"/></g></g></svg>